<?xml version="1.0" encoding="UTF-8" standalone="no"?>
<svg
   xmlns:dc="http://purl.org/dc/elements/1.1/"
   xmlns:cc="http://creativecommons.org/ns#"
   xmlns:rdf="http://www.w3.org/1999/02/22-rdf-syntax-ns#"
   xmlns:svg="http://www.w3.org/2000/svg"
   xmlns="http://www.w3.org/2000/svg"
   id="svg8"
   version="1.1"
   viewBox="0 0 160 160"
   height="160mm"
   width="160mm">
  <defs
     id="defs2" />
  <metadata
     id="metadata5">
    <rdf:RDF>
      <cc:Work
         rdf:about="">
        <dc:format>image/svg+xml</dc:format>
        <dc:type
           rdf:resource="http://purl.org/dc/dcmitype/StillImage" />
        <dc:title></dc:title>
      </cc:Work>
    </rdf:RDF>
  </metadata>
  <g
     transform="translate(266.46125,-156.49774)"
     id="layer1">
    <path
       id="path46"
       d="m -253.68465,306.29714 0.0768,-11.44943 0.84761,-1.7211 c 1.03127,-2.09402 3.17671,-4.31877 5.88834,-6.10601 1.09742,-0.72331 5.15569,-2.89368 9.01839,-4.82304 7.66422,-3.82817 10.50149,-5.45235 13.81009,-7.90553 2.22371,-1.64878 5.60486,-4.8772 6.89684,-6.58531 l 0.72587,-0.95966 -1.05085,-1.95076 c -3.42518,-6.35835 -5.56589,-15.61492 -6.38644,-27.61534 -0.30176,-4.41329 -0.20041,-6.89411 0.68638,-16.80104 0.21623,-2.41554 -0.33347,-0.66389 -1.32848,4.23333 -0.54808,2.69749 -0.89515,3.95868 -0.90831,3.30061 -0.0546,-2.72935 4.09327,-23.02881 5.9644,-29.18941 2.55829,-8.42306 6.755,-16.36843 10.86812,-20.5759 2.96298,-3.03096 5.5264,-4.53422 9.23314,-5.41457 1.24889,-0.29661 2.5875,-0.66277 2.97469,-0.81369 0.84362,-0.32882 5.74362,-0.58536 11.55188,-0.6048 3.63203,-0.0122 4.55278,0.0729 6.48229,0.59898 8.38833,2.28696 15.41266,8.51607 20.56538,18.23717 1.8593,3.50775 3.03891,6.33131 3.61992,8.66474 0.72844,2.92554 1.45792,8.9415 1.87685,15.47812 0.48331,7.54121 0.97847,11.25837 1.868,14.02292 1.02561,3.18745 2.49694,12.89864 2.49694,16.48049 0,2.8014 -0.55337,6.94946 -1.04406,7.82627 -0.11329,0.20244 -0.16337,-1.10587 -0.11128,-2.90737 l 0.0947,-3.27544 -0.37312,1.5875 c -0.43051,1.83166 -1.17537,3.69678 -1.39046,3.48169 -0.0811,-0.0811 -0.0113,-0.53763 0.15493,-1.01461 0.16627,-0.47697 0.36448,-1.94157 0.44046,-3.25465 l 0.13814,-2.38743 -0.946,3.57188 c -2.00149,7.55712 -5.32216,15.86234 -7.11625,17.79819 l -0.64173,0.69244 1.65901,1.93333 c 4.11819,4.79916 8.24697,7.6037 19.4544,13.21469 4.00183,2.00351 8.17393,4.23418 9.27135,4.95703 2.71077,1.78555 4.85679,4.01059 5.88834,6.10518 l 0.84761,1.7211 0.0768,11.44943 0.0768,11.44944 h -66.16705 -66.16703 z"
       style="fill:#8c8c8c;fill-opacity:1;stroke-width:0.264583" />
  </g>
</svg>
