<?xml version="1.0" encoding="UTF-8" standalone="no"?>
<svg
   xmlns:dc="http://purl.org/dc/elements/1.1/"
   xmlns:cc="http://creativecommons.org/ns#"
   xmlns:rdf="http://www.w3.org/1999/02/22-rdf-syntax-ns#"
   xmlns:svg="http://www.w3.org/2000/svg"
   xmlns="http://www.w3.org/2000/svg"
   version="1.1"
   id="svg2"
   viewBox="0 0 380.1 428.69574"
   height="120.98746mm"
   width="107.27267mm">
  <defs
     id="defs4" />
  <metadata
     id="metadata7">
    <rdf:RDF>
      <cc:Work
         rdf:about="">
        <dc:format>image/svg+xml</dc:format>
        <dc:type
           rdf:resource="http://purl.org/dc/dcmitype/StillImage" />
        <dc:title></dc:title>
      </cc:Work>
    </rdf:RDF>
  </metadata>
  <g
     transform="translate(550.80364,-746.16656)"
     id="layer1">
    <path
       id="path4147"
       d="m -550.80358,1145.6134 0,-29.2489 2.72897,-1.4039 c 5.68441,-2.9242 16.2579,-5.4843 29.11224,-7.049 23.17869,-2.8212 34.79051,-6.0186 58.78632,-16.1869 9.69324,-4.1076 11.26454,-5.1462 16.0766,-10.6272 5.72444,-6.5202 6.87574,-7.2947 15.54161,-10.4549 4.6113,-1.6818 6.20066,-2.8982 8.68308,-6.646 1.67121,-2.5229 3.03858,-5.7957 3.03858,-7.2728 0,-4.7743 -1.77336,-5.2844 -18.6883,-5.3751 -14.25815,-0.076 -16.18721,-0.3076 -23.25622,-2.7866 -10.10822,-3.5449 -25.46605,-11.2937 -26.20611,-13.2223 -0.35066,-0.9137 0.61071,-2.7852 2.40512,-4.6819 6.40401,-6.7693 6.41446,-8.0609 0.21535,-26.6403 -6.24322,-18.71178 -6.21806,-29.95941 0.10019,-44.80713 3.60745,-8.47733 3.63691,-11.27712 0.18765,-17.83182 -2.42844,-4.61481 -2.71995,-6.20037 -2.6852,-14.6042 0.0371,-8.95546 0.47519,-10.8678 8.75343,-38.20551 29.03814,-95.89439 28.58412,-94.55283 35.74469,-105.62195 15.30722,-23.66253 43.41461,-36.78043 78.80852,-36.78043 36.63569,0 62.84499,12.50041 79.19201,37.77032 7.06036,10.9142 10.74348,20.48328 17.80627,46.26233 9.11066,33.2538 12.75926,45.19399 18.22664,59.64799 6.26063,16.55115 8.01915,24.65821 8.01915,36.96996 0,8.54028 -0.30707,10.5019 -2.02098,12.90887 -4.3442,6.10083 -4.34476,7.61034 -0.008,20.53769 3.51276,10.47034 4.0133,13.08244 4.0133,20.94368 0,7.78623 -0.5411,10.67159 -4.06633,21.682 -2.3017,7.1885 -4.132,14.936 -4.2175,17.8517 -0.134,4.5675 0.21435,5.5286 3.07399,8.4822 3.64161,3.7612 4.00679,5.7095 1.48853,7.9413 -2.76668,2.4519 -14.93227,8.3104 -23.56833,11.3495 -7.28274,2.5628 -9.20993,2.8063 -23.32024,2.9449 -8.4598,0.083 -16.15441,0.1963 -17.09916,0.2514 -3.08053,0.1799 -3.16271,4.5274 -0.18889,9.9913 3.00994,5.5303 6.51783,8.1609 13.28267,9.9606 2.91958,0.7769 5.62585,2.4718 7.93881,4.9721 1.93006,2.0865 5.02678,5.4466 6.88159,7.467 3.87622,4.2222 8.3216,6.3401 26.73783,12.7386 17.7638,6.1718 29.99861,9.1707 44.91571,11.0094 13.04029,1.6074 19.91712,3.117 28.17857,6.1861 l 4.96175,1.8433 0.26286,29.4917 0.26317,29.4918 -190.05,0 -190.05,0 0,-29.2489 z"
       style="fill:#6d6d6d" />
  </g>
</svg>
