<?xml version="1.0" encoding="UTF-8" standalone="no"?>
<svg
   xmlns:dc="http://purl.org/dc/elements/1.1/"
   xmlns:cc="http://creativecommons.org/ns#"
   xmlns:rdf="http://www.w3.org/1999/02/22-rdf-syntax-ns#"
   xmlns:svg="http://www.w3.org/2000/svg"
   xmlns="http://www.w3.org/2000/svg"
   xmlns:sodipodi="http://sodipodi.sourceforge.net/DTD/sodipodi-0.dtd"
   xmlns:inkscape="http://www.inkscape.org/namespaces/inkscape"
   sodipodi:docname="male_photo.svg"
   inkscape:version="1.0 (4035a4fb49, 2020-05-01)"
   id="svg8"
   version="1.1"
   viewBox="0 0 160 160"
   height="160mm"
   width="160mm">
  <defs
     id="defs2" />
  <sodipodi:namedview
     inkscape:window-maximized="1"
     inkscape:window-y="-11"
     inkscape:window-x="-11"
     inkscape:window-height="1465"
     inkscape:window-width="2880"
     fit-margin-bottom="0"
     fit-margin-right="0"
     fit-margin-left="0"
     fit-margin-top="0"
     showgrid="false"
     inkscape:document-rotation="0"
     inkscape:current-layer="layer1"
     inkscape:document-units="mm"
     inkscape:cy="-31.487489"
     inkscape:cx="1407.0976"
     inkscape:zoom="0.5"
     inkscape:pageshadow="2"
     inkscape:pageopacity="0.0"
     borderopacity="1.0"
     bordercolor="#666666"
     pagecolor="#ffffff"
     id="base" />
  <metadata
     id="metadata5">
    <rdf:RDF>
      <cc:Work
         rdf:about="">
        <dc:format>image/svg+xml</dc:format>
        <dc:type
           rdf:resource="http://purl.org/dc/dcmitype/StillImage" />
        <dc:title></dc:title>
      </cc:Work>
    </rdf:RDF>
  </metadata>
  <g
     transform="translate(266.46125,-156.49774)"
     id="layer1"
     inkscape:groupmode="layer"
     inkscape:label="Слой 1">
    <g
       id="g24"
       transform="translate(-376.30167,-16.417355)">
      <path
         style="fill:#a3a3a3;fill-opacity:1;stroke-width:0.264583"
         d="m 166.4111,246.97789 c 0.191,-0.0764 0.4192,-0.067 0.50712,0.0209 0.0879,0.0879 -0.0683,0.15045 -0.34726,0.13897 -0.30823,-0.0127 -0.37092,-0.0754 -0.15986,-0.15985 z m 46.30209,0 c 0.19099,-0.0764 0.4192,-0.067 0.50712,0.0209 0.0879,0.0879 -0.0684,0.15045 -0.34727,0.13897 -0.30823,-0.0127 -0.37092,-0.0754 -0.15985,-0.15985 z M 161.4754,233.66488 c 0,-0.36381 0.0601,-0.51263 0.13346,-0.33073 0.0734,0.1819 0.0734,0.47955 0,0.66145 -0.0734,0.18191 -0.13346,0.0331 -0.13346,-0.33072 z m 56.35625,0 c 0,-0.36381 0.0601,-0.51263 0.13346,-0.33073 0.0734,0.1819 0.0734,0.47955 0,0.66145 -0.0734,0.18191 -0.13346,0.0331 -0.13346,-0.33072 z m -53.99588,-14.44184 c 0.0127,-0.30823 0.0754,-0.37092 0.15985,-0.15986 0.0764,0.191 0.067,0.4192 -0.0209,0.50712 -0.0879,0.0879 -0.15045,-0.0684 -0.13896,-0.34726 z m 52.65208,-3.43959 c 0.0127,-0.30822 0.0754,-0.37092 0.15985,-0.15985 0.0764,0.19099 0.067,0.4192 -0.0209,0.50712 -0.0879,0.0879 -0.15046,-0.0684 -0.13897,-0.34727 z m 0.85215,-6.72483 c 0,-0.80036 0.0496,-1.12778 0.11022,-0.7276 0.0606,0.40018 0.0606,1.05503 0,1.45521 -0.0606,0.40018 -0.11022,0.0728 -0.11022,-0.72761 z m -6.89707,-11.1125 c 0,-0.50932 0.0545,-0.71768 0.121,-0.46302 0.0666,0.25466 0.0666,0.67138 0,0.92604 -0.0666,0.25467 -0.121,0.0463 -0.121,-0.46302 z m -33.62169,-10.31875 c 0,-0.3638 0.0601,-0.51263 0.13345,-0.33073 0.0734,0.18191 0.0734,0.47956 0,0.66146 -0.0734,0.1819 -0.13345,0.0331 -0.13345,-0.33073 z m 12.8732,-1.23907 c 0.19099,-0.0764 0.41919,-0.067 0.50711,0.0209 0.0879,0.0879 -0.0684,0.15045 -0.34726,0.13896 -0.30823,-0.0127 -0.37092,-0.0754 -0.15985,-0.15985 z m -9.6884,-2.3328 c 0.005,-0.43656 0.0647,-0.58313 0.13178,-0.3257 0.0671,0.25744 0.0627,0.61462 -0.01,0.79375 -0.0725,0.17914 -0.12735,-0.0315 -0.12196,-0.46805 z"
         id="path30" />
      <path
         style="fill:#8c8c8c;fill-opacity:1;stroke-width:0.264583"
         d="m 129.94821,301.00134 c 0.34177,-0.36381 0.68094,-0.66146 0.7537,-0.66146 0.0728,0 -0.14734,0.29765 -0.48912,0.66146 -0.34177,0.3638 -0.68094,0.66146 -0.7537,0.66146 -0.0728,0 0.14735,-0.29766 0.48912,-0.66146 z m 119.30706,-0.0662 -0.64143,-0.7276 0.7276,0.64143 c 0.40018,0.35279 0.72761,0.68021 0.72761,0.7276 0,0.20751 -0.21426,0.0386 -0.81378,-0.64143 z m -80.81018,-104.8411 c 0.26339,-0.29104 0.53842,-0.52917 0.61118,-0.52917 0.0728,0 -0.0832,0.23813 -0.3466,0.52917 -0.26339,0.29104 -0.53842,0.52917 -0.61118,0.52917 -0.0728,0 0.0832,-0.23813 0.3466,-0.52917 z"
         id="path28" />
      <path
         style="fill:#767676;fill-opacity:1;stroke-width:0.264583"
         d="m 123.65943,323.42478 0.10432,-10.25261 0.72294,-2.36037 c 1.99697,-6.52004 5.29682,-10.51586 11.57766,-14.01946 7.96619,-4.44373 26.33008,-16.54951 30.02172,-19.79081 0.50763,-0.44571 1.99751,-2.38974 3.31083,-4.32008 1.31332,-1.93033 2.61869,-3.7186 2.90083,-3.97393 0.46786,-0.42341 0.51298,-0.8459 0.51298,-4.80338 v -4.33913 l -1.02212,-1.50684 c -2.05442,-3.02868 -3.81055,-7.19015 -4.16648,-9.87326 -0.16483,-1.24254 -0.20319,-1.29087 -1.02456,-1.29087 -2.88886,0 -4.91897,-6.33989 -4.99866,-15.61041 -0.027,-3.14533 0.0546,-4.06341 0.45309,-5.09625 0.49176,-1.27459 1.1706,-1.89219 1.80988,-1.64661 0.49368,0.18966 0.35492,-3.52893 -0.35032,-9.3877 -0.67494,-5.60709 -0.58234,-6.88115 0.81057,-11.15209 0.58337,-1.78873 0.99741,-3.31549 0.92008,-3.39282 -0.0773,-0.0773 -0.37774,0.15529 -0.66759,0.51692 l -0.52699,0.6575 0.39952,-0.79375 c 0.21974,-0.43656 0.76218,-1.32953 1.20542,-1.98437 0.90026,-1.33004 0.99527,-1.79689 0.41129,-2.02099 -0.21829,-0.0838 -0.39688,-0.25862 -0.39688,-0.38857 0,-0.3253 0.97971,-0.29697 1.62226,0.0469 0.44781,0.23966 0.66878,0.13511 1.43781,-0.6803 1.07102,-1.13561 1.10036,-1.34234 0.31337,-2.20789 -0.50669,-0.55726 -0.52273,-0.62856 -0.10771,-0.47894 1.49286,0.53819 1.62907,0.5001 2.26636,-0.6338 0.34026,-0.60541 0.95369,-1.48233 1.36318,-1.94871 0.67231,-0.76573 0.72107,-0.94903 0.50281,-1.89023 -0.13294,-0.57325 -0.2383,-1.39946 -0.23414,-1.83602 l 0.008,-0.79375 0.44914,0.6552 c 0.95104,1.38736 1.97938,2.3875 2.45483,2.3875 0.85199,0 1.34936,-1.10027 1.15607,-2.55742 -0.13858,-1.04465 -0.0751,-1.40692 0.33505,-1.9135 l 0.506,-0.62487 -0.11402,0.97665 c -0.0882,0.75503 0.0235,1.12308 0.49211,1.62186 0.33338,0.35486 0.68239,0.6452 0.77559,0.6452 0.26449,0 1.00805,-1.69648 1.20597,-2.75148 0.0983,-0.52398 0.26641,-0.95269 0.37359,-0.95269 0.10717,0 0.85057,0.68745 1.652,1.52766 l 1.45714,1.52766 1.47143,-0.80003 1.47142,-0.80002 0.79187,0.58546 c 0.53551,0.39591 1.36631,0.6443 2.56621,0.76724 1.72896,0.17713 1.76694,0.16797 1.48518,-0.35851 -0.15904,-0.29716 -0.6788,-0.86822 -1.15502,-1.26902 -0.78955,-0.6645 -0.80756,-0.7107 -0.2044,-0.52419 0.91085,0.28166 2.00016,0.84829 3.64316,1.89507 1.52832,0.97372 1.88974,1.10087 1.37861,0.485 -0.51468,-0.62016 -0.19432,-0.69091 1.00147,-0.22119 1.34438,0.52808 1.91302,0.3431 1.9182,-0.62401 l 0.004,-0.73591 0.91217,1.05834 c 0.84418,0.97944 0.91292,1.01143 0.92211,0.4292 0.009,-0.58998 0.0799,-0.61835 1.13441,-0.45594 0.61846,0.0952 1.69003,0.44945 2.38125,0.7871 0.92629,0.45249 1.25677,0.5202 1.25677,0.25751 0,-0.73892 0.521,-0.3061 1.40229,1.16494 0.50129,0.83674 0.98688,1.69995 1.07908,1.91823 0.0922,0.21828 0.10556,0.0397 0.0297,-0.39688 -0.13299,-0.76531 -0.12279,-0.77479 0.28462,-0.26458 1.40764,1.76278 3.02515,6.02299 3.02515,7.96769 0,1.19541 0.005,1.19934 1.82364,1.56686 1.83023,0.36977 4.45295,3.54346 3.97622,4.81152 -0.1468,0.39049 -0.10559,0.70311 0.1228,0.9315 0.78935,0.78935 0.9565,1.58429 0.9565,4.54879 0,2.75755 -0.21051,3.66055 -0.63629,2.72937 -0.0832,-0.1819 -0.0809,0.0686 0.005,0.55663 0.18869,1.07171 -0.11836,3.80133 -0.4075,3.62264 -0.11334,-0.07 -0.20749,1.20826 -0.20922,2.84069 -0.002,1.96033 -0.14342,3.40182 -0.41626,4.2456 -0.36319,1.12316 -0.36521,1.25916 -0.0167,1.12543 0.68458,-0.2627 1.35277,0.32361 1.85638,1.62891 0.3985,1.03284 0.48012,1.95092 0.45309,5.09625 -0.0794,9.23322 -2.10073,15.61041 -4.948,15.61041 -0.882,0 -0.90814,0.0314 -1.07522,1.29087 -0.35593,2.68311 -2.11205,6.84458 -4.16648,9.87326 l -1.0221,1.50684 v 4.25891 c 0,3.93658 0.0413,4.30314 0.54566,4.84317 0.30011,0.32133 1.61975,2.15823 2.93253,4.08198 1.31278,1.92376 2.78794,3.84989 3.27815,4.28029 3.66151,3.21485 22.06241,15.34077 29.99002,19.76298 6.28084,3.5036 9.58069,7.49942 11.57766,14.01946 l 0.72294,2.36037 0.10432,10.25261 0.10432,10.2526 h -66.18894 -66.18893 z"
         id="path26" />
    </g>
  </g>
</svg>
