<?xml version="1.0" encoding="UTF-8" standalone="no"?>
<svg
   xmlns:dc="http://purl.org/dc/elements/1.1/"
   xmlns:cc="http://creativecommons.org/ns#"
   xmlns:rdf="http://www.w3.org/1999/02/22-rdf-syntax-ns#"
   xmlns:svg="http://www.w3.org/2000/svg"
   xmlns="http://www.w3.org/2000/svg"
   version="1.1"
   id="svg2"
   viewBox="0 0 11.000029 23.722028"
   height="6.6948833mm"
   width="3.1044526mm">
  <defs
     id="defs4" />
  <metadata
     id="metadata7">
    <rdf:RDF>
      <cc:Work
         rdf:about="">
        <dc:format>image/svg+xml</dc:format>
        <dc:type
           rdf:resource="http://purl.org/dc/dcmitype/StillImage" />
        <dc:title></dc:title>
      </cc:Work>
    </rdf:RDF>
  </metadata>
  <g
     transform="translate(-215.26985,-502.03975)"
     id="layer1">
    <path
       id="path4159"
       d="m 217.64188,525.74808 c -0.007,-0.007 -0.0255,-2.67093 -0.0408,-5.91878 l -0.0278,-5.90518 -1.14293,-0.0272 -1.14294,-0.0272 -0.0143,-2.00735 c -0.0102,-1.43633 0.003,-2.02853 0.0475,-2.08178 0.0485,-0.0585 0.29809,-0.0744 1.16392,-0.0744 l 1.10215,0 0.0293,-1.72801 c 0.0244,-1.43981 0.0472,-1.80971 0.13647,-2.21784 0.41073,-1.87759 1.52018,-3.08373 3.25299,-3.53653 0.60921,-0.15919 1.28963,-0.19685 3.26218,-0.18058 l 1.95933,0.0162 0,2.01375 0,2.01375 -1.49671,0.0272 c -1.45291,0.0264 -1.50272,0.031 -1.70249,0.15516 -0.11319,0.0704 -0.26013,0.22956 -0.32656,0.35376 -0.11584,0.21664 -0.12076,0.28342 -0.12076,1.64089 l 0,1.41507 1.82129,0.0144 c 1.0017,0.008 1.84106,0.0341 1.86524,0.0583 0.0375,0.0375 -0.29702,3.67067 -0.37035,4.02286 l -0.0255,0.12246 -1.57286,0 c -0.86507,0 -1.61159,0.0149 -1.65894,0.033 -0.0778,0.0299 -0.0861,0.60316 -0.0861,5.93239 l 0,5.89936 -2.44916,0 c -1.34703,0 -2.455,-0.006 -2.46215,-0.0136 z"
       style="fill:#ffffff;stroke:none;stroke-opacity:1;fill-opacity:1" />
  </g>
</svg>
