<svg xmlns="http://www.w3.org/2000/svg" width="17" height="23" viewBox="0 0 17 23"><g><g><path fill="#fff" d="M12.074 8.588V8.7a3.84 3.84 0 1 1 0-.11zM5.841.721a8.16 8.16 0 0 0-2.045.939A8.312 8.312 0 0 0 1.85 3.379 8.234 8.234 0 0 0-.037 8.178c-.043.849.035 1.7.231 2.527.19.806.455 1.593.792 2.35.299.682.636 1.347 1.011 1.991.37.634.764 1.254 1.187 1.854.348.497.71.983 1.087 1.459.614.776 1.255 1.53 1.93 2.251.544.58 1.09 1.156 1.687 1.681a.499.499 0 0 0 .702 0c.17-.153.336-.31.499-.47a36.177 36.177 0 0 0 2.827-3.103 31.14 31.14 0 0 0 2.075-2.879c.599-.937 1.121-1.921 1.56-2.944.37-.86.646-1.759.82-2.68.1-.518.15-1.045.153-1.573a8.339 8.339 0 0 0-2.317-5.731 8.135 8.135 0 0 0-1.183-1.014A8.261 8.261 0 0 0 8.063.367C7.31.388 6.563.507 5.84.72z"/></g></g></svg>