<svg xmlns="http://www.w3.org/2000/svg" width="20" height="22" viewBox="0 0 20 22"><g><g><path fill="#fff" d="M17.592 8.933c-1.479.285-2.986-1.091-3.367-3.073a4.728 4.728 0 0 1-.05-1.493.504.504 0 0 0-.5-.57H6a.504.504 0 0 0-.5.57c.061.471.049.977-.05 1.493-.38 1.982-1.888 3.358-3.367 3.073C.603 8.65-.288 6.813.092 4.832c.353-1.838 1.613-4.2 3.77-4.2h11.904c2.17 0 3.456 2.324 3.816 4.2.38 1.982-.51 3.818-1.99 4.101z"/></g><g><path fill="#fff" d="M19.67 18.778v1.051c0 1.11-.9 2.009-2.009 2.009H2.013c-1.11 0-2.008-.9-2.008-2.009v-1.051l1.84-8.186a4.436 4.436 0 0 0 4.606-4.43l.001-.01a.954.954 0 0 1 .949-.968h4.873c.531 0 .95.436.95.967v.01a4.435 4.435 0 0 0 4.603 4.432z"/></g></g></svg>