<?xml version="1.0" encoding="UTF-8" standalone="no"?>
<svg
   xmlns:dc="http://purl.org/dc/elements/1.1/"
   xmlns:cc="http://creativecommons.org/ns#"
   xmlns:rdf="http://www.w3.org/1999/02/22-rdf-syntax-ns#"
   xmlns:svg="http://www.w3.org/2000/svg"
   xmlns="http://www.w3.org/2000/svg"
   version="1.1"
   id="svg2"
   viewBox="0 0 20.000906 16.004396"
   height="4.5167961mm"
   width="5.6447001mm">
  <defs
     id="defs4" />
  <metadata
     id="metadata7">
    <rdf:RDF>
      <cc:Work
         rdf:about="">
        <dc:format>image/svg+xml</dc:format>
        <dc:type
           rdf:resource="http://purl.org/dc/dcmitype/StillImage" />
        <dc:title></dc:title>
      </cc:Work>
    </rdf:RDF>
  </metadata>
  <g
     transform="translate(-982.95243,-326.24519)"
     id="layer1">
    <g
       style="fill:#ffffff;fill-opacity:1;stroke:#ffffff;stroke-opacity:1"
       id="layer1-8"
       transform="matrix(1.1799041,0,0,1.1381841,2343.2651,-775.79785)">
      <g
         style="fill:#ffffff;fill-opacity:1;stroke:#ffffff;stroke-opacity:1"
         id="g4158"
         transform="translate(-321.42857,6.4285714)">
        <g
           transform="matrix(0.06142199,0,0,0.06142199,-871.43348,911.61491)"
           id="layer1-3"
           style="fill:#ffffff;fill-opacity:1;stroke:#ffffff;stroke-opacity:1">
          <path
             id="path4160"
             d="m 720.47263,1045.4154 c -10.22565,-1.1096 -26.24269,-4.4486 -36.0925,-7.5241 -11.34983,-3.5439 -33.2825,-13.7917 -33.2825,-15.5509 0,-0.6263 3.3343,-1.1389 7.40955,-1.1389 19.96832,0 43.71863,-6.4055 59.81109,-16.1313 5.22696,-3.159 9.70953,-6.4004 9.96126,-7.20309 0.28047,-0.8943 -2.35235,-2.0352 -6.7996,-2.9465 -10.34618,-2.1201 -19.34387,-6.7041 -27.1339,-13.8238 -6.72016,-6.1418 -13.4639,-15.462 -15.07381,-20.8328 -0.81493,-2.7187 -0.55877,-2.8154 7.67868,-2.9003 13.99794,-0.1444 14.90699,-1.327 4.73976,-6.1661 -10.90258,-5.1891 -23.75606,-17.63835 -28.38899,-27.49609 -3.19891,-6.80649 -6.74567,-22.12504 -5.42782,-23.44289 0.37582,-0.37582 4.77054,0.52812 9.76605,2.00875 4.9955,1.48063 9.78586,2.69028 10.64523,2.6881 2.64895,-0.007 1.73762,-2.518 -2.07925,-5.72969 -5.46972,-4.60247 -12.69296,-16.20414 -15.29606,-24.56792 -4.09228,-13.14854 -2.47566,-35.12654 3.14967,-42.81963 1.69998,-2.32486 2.42464,-1.83303 14.76588,10.02172 14.11537,13.55893 25.39529,21.67007 40.99228,29.47661 17.47515,8.74658 40.6036,15.39936 56.90498,16.36841 l 6.25,0.37154 0.66818,-13.90219 c 0.62072,-12.91493 1.00563,-14.58498 5.42005,-23.51696 14.32548,-28.98565 47.31158,-40.75696 76.25572,-27.21237 4.27596,2.00096 9.79084,5.4085 12.25527,7.57232 2.46446,2.16381 5.86053,3.9342 7.54686,3.9342 4.00547,0 17.47426,-4.44879 24.97288,-8.24863 7.1262,-3.61112 7.25604,-3.62264 7.25604,-0.64381 0,3.35596 -9.3561,16.92968 -14.71276,21.34509 -2.48766,2.05054 -4.11398,4.13728 -3.61404,4.63722 1.4777,1.4777 24.50135,-4.20171 26.12016,-6.44324 0.61355,-0.84958 0.92472,-0.83196 0.9375,0.0531 0.0228,1.57134 -9.942,13.66432 -14.7401,17.88833 -1.85117,1.62967 -5.3878,4.80591 -7.85918,7.05831 l -4.49342,4.09527 -0.75027,13.56669 c -2.38523,43.13018 -19.24708,81.39106 -48.96779,111.11175 -23.30207,23.3021 -47.74812,36.3709 -80.53101,43.0516 -12.32193,2.511 -38.0171,4.104 -48.26409,2.9921 z"
             style="fill:#ffffff;fill-opacity:1;stroke:#ffffff;stroke-opacity:1" />
        </g>
      </g>
    </g>
  </g>
</svg>
