<?xml version="1.0" encoding="UTF-8" standalone="no"?>
<!-- Created with Inkscape (http://www.inkscape.org/) -->

<svg
   xmlns:dc="http://purl.org/dc/elements/1.1/"
   xmlns:cc="http://creativecommons.org/ns#"
   xmlns:rdf="http://www.w3.org/1999/02/22-rdf-syntax-ns#"
   xmlns:svg="http://www.w3.org/2000/svg"
   xmlns="http://www.w3.org/2000/svg"
   xmlns:sodipodi="http://sodipodi.sourceforge.net/DTD/sodipodi-0.dtd"
   xmlns:inkscape="http://www.inkscape.org/namespaces/inkscape"
   width="5.0799999mm"
   height="5.0770855mm"
   viewBox="0 0 18 17.989673"
   id="svg2"
   version="1.1"
   inkscape:version="0.91 r13725"
   sodipodi:docname="instagram.svg">
  <defs
     id="defs4" />
  <sodipodi:namedview
     id="base"
     pagecolor="#ffffff"
     bordercolor="#666666"
     borderopacity="1.0"
     inkscape:pageopacity="0.0"
     inkscape:pageshadow="2"
     inkscape:zoom="31.678384"
     inkscape:cx="12.265625"
     inkscape:cy="7.5787997"
     inkscape:document-units="px"
     inkscape:current-layer="g4158"
     showgrid="false"
     fit-margin-top="0"
     fit-margin-left="0"
     fit-margin-right="0"
     fit-margin-bottom="0"
     inkscape:window-width="1920"
     inkscape:window-height="976"
     inkscape:window-x="-8"
     inkscape:window-y="-8"
     inkscape:window-maximized="1" />
  <metadata
     id="metadata7">
    <rdf:RDF>
      <cc:Work
         rdf:about="">
        <dc:format>image/svg+xml</dc:format>
        <dc:type
           rdf:resource="http://purl.org/dc/dcmitype/StillImage" />
        <dc:title></dc:title>
      </cc:Work>
    </rdf:RDF>
  </metadata>
  <g
     inkscape:label="Layer 1"
     inkscape:groupmode="layer"
     id="layer1"
     transform="translate(848.30733,-581.09692)">
    <g
       id="g4158"
       transform="translate(-321.42857,6.4285714)">
      <path
         style="fill:#6a6a6a;fill-opacity:1;stroke:none"
         d="m -522.13531,592.58682 c -1.94474,-0.22622 -3.34337,-1.10678 -4.05203,-2.55111 -0.62281,-1.26936 -0.69142,-1.90133 -0.69142,-6.36835 0,-4.46703 0.0686,-5.099 0.69142,-6.36836 0.72867,-1.48511 2.08179,-2.31909 4.14604,-2.55535 0.87719,-0.1004 7.44987,-0.1004 8.32706,0 1.48537,0.17 2.52542,0.61414 3.33573,1.42444 0.81031,0.81031 1.25444,1.85037 1.42445,3.33574 0.1004,0.87719 0.1004,7.44987 0,8.32705 -0.23627,2.06426 -1.07024,3.41738 -2.55536,4.14605 -0.72911,0.35773 -1.26238,0.50627 -2.20482,0.61414 -0.80035,0.0916 -7.62664,0.0882 -8.42107,-0.004 z m 8.22035,-1.64491 c 2.13429,-0.21902 3.09272,-1.17746 3.31174,-3.31174 0.10025,-0.97694 0.10025,-6.94868 0,-7.92563 -0.21902,-2.13428 -1.17745,-3.09271 -3.31174,-3.31173 -0.97694,-0.10026 -6.94868,-0.10026 -7.92562,0 -2.13429,0.21902 -3.09272,1.17745 -3.31174,3.31173 -0.10025,0.97695 -0.10025,6.94869 0,7.92563 0.0425,0.4141 0.14447,0.94937 0.22662,1.18949 0.42753,1.2497 1.41304,1.95336 2.96478,2.11688 0.86943,0.0916 7.16457,0.0958 8.04596,0.005 z m -4.93805,-2.74006 c -1.73845,-0.37338 -3.19703,-1.8456 -3.56343,-3.59676 -0.42434,-2.02808 0.59891,-4.14551 2.44251,-5.05433 1.42057,-0.70029 2.77175,-0.70029 4.19232,0 0.8736,0.43065 1.58979,1.14683 2.02044,2.02044 0.70029,1.42057 0.70029,2.77175 0,4.19232 -0.91248,1.85101 -3.05326,2.87616 -5.09184,2.43833 z m 1.69091,-1.64946 c 0.877,-0.22695 1.56358,-0.78081 1.95197,-1.57467 0.88149,-1.80169 -0.19453,-3.87766 -2.20351,-4.25127 -1.55821,-0.28978 -3.09896,0.83094 -3.40504,2.47678 -0.20919,1.12489 0.37362,2.39288 1.37579,2.9932 0.74116,0.44397 1.48941,0.56075 2.28079,0.35596 z m 3.50891,-6.77784 c -0.77912,-0.48946 -0.59566,-1.72378 0.29171,-1.96272 1.0794,-0.29066 1.84385,1.06719 1.03635,1.84082 -0.30332,0.29059 -0.96313,0.35116 -1.32806,0.1219 z"
         id="path4185"
         inkscape:connector-curvature="0" />
    </g>
  </g>
</svg>
