<?xml version="1.0" encoding="UTF-8" standalone="no"?>
<svg
   xmlns:dc="http://purl.org/dc/elements/1.1/"
   xmlns:cc="http://creativecommons.org/ns#"
   xmlns:rdf="http://www.w3.org/1999/02/22-rdf-syntax-ns#"
   xmlns:svg="http://www.w3.org/2000/svg"
   xmlns="http://www.w3.org/2000/svg"
   version="1.1"
   id="svg2"
   viewBox="0 0 18 17.999999"
   height="5.0799999mm"
   width="5.0799999mm">
  <defs
     id="defs4" />
  <metadata
     id="metadata7">
    <rdf:RDF>
      <cc:Work
         rdf:about="">
        <dc:format>image/svg+xml</dc:format>
        <dc:type
           rdf:resource="http://purl.org/dc/dcmitype/StillImage" />
        <dc:title></dc:title>
      </cc:Work>
    </rdf:RDF>
  </metadata>
  <g
     transform="translate(324.50086,-617.08395)"
     id="layer1">
    <path
       id="path4147"
       d="m -319.33736,634.98714 c -0.0555,-0.0669 -0.13737,-0.75569 -0.17768,-1.495 -0.04,-0.7329 0.004,-1.60721 0.10775,-2.16616 0.0397,-0.21276 0.36371,-1.62287 0.72007,-3.13359 0.35636,-1.51071 0.64793,-2.77245 0.64793,-2.80385 0,-0.0314 -0.0384,-0.17216 -0.0852,-0.3128 -0.26568,-0.79699 -0.29012,-1.68541 -0.0661,-2.40091 0.23884,-0.76272 0.68822,-1.29166 1.30354,-1.53431 0.27852,-0.10983 0.78076,-0.10935 1.06847,10e-4 0.60877,0.23354 0.92046,0.89073 0.83341,1.75716 -0.041,0.40845 -0.135,0.79251 -0.45283,1.85099 -0.4772,1.58926 -0.51931,1.78709 -0.45946,2.15874 0.1576,0.9786 1.13117,1.54377 2.19196,1.27247 0.8391,-0.21461 1.49706,-0.84095 2.0159,-1.91901 0.30944,-0.64299 0.51498,-1.33777 0.63447,-2.14471 0.0744,-0.50215 0.10331,-1.58293 0.0525,-1.96216 -0.1731,-1.2934 -0.87807,-2.309 -1.9902,-2.86714 -1.11758,-0.56087 -2.67391,-0.64218 -4.02666,-0.21037 -1.45294,0.4638 -2.60007,1.61649 -3.07707,3.09198 -0.18011,0.55713 -0.23975,0.94561 -0.24226,1.57793 -0.002,0.46048 0.0104,0.59314 0.0788,0.85459 0.12584,0.48117 0.26343,0.75909 0.57339,1.15824 0.2192,0.28227 0.22328,0.32724 0.0818,0.90343 -0.14768,0.60144 -0.19925,0.72069 -0.3362,0.77742 -0.13076,0.0542 -0.25818,0.0284 -0.53396,-0.10806 -0.71241,-0.35245 -1.30365,-1.0847 -1.61284,-1.99752 -0.32006,-0.94489 -0.35978,-2.26388 -0.0976,-3.24096 0.31601,-1.17773 0.84928,-2.09212 1.73391,-2.97315 1.0281,-1.02389 2.31171,-1.67496 3.83649,-1.94591 1.14489,-0.20344 2.42539,-0.17765 3.40988,0.0687 1.17131,0.29307 2.08458,0.78091 2.92534,1.56264 0.79822,0.74217 1.377,1.70384 1.66126,2.76023 0.33161,1.23233 0.18689,3.10876 -0.35373,4.58644 -0.69777,1.90724 -1.98095,3.20487 -3.65127,3.69236 -0.49442,0.14431 -0.72938,0.1754 -1.31877,0.17453 -0.50238,-7.4e-4 -0.60031,-0.0111 -0.9139,-0.097 -0.50727,-0.13886 -0.98602,-0.39944 -1.29932,-0.7072 -0.13797,-0.13554 -0.28197,-0.29135 -0.32001,-0.34625 l -0.0692,-0.0998 -0.34753,1.36584 c -0.41331,1.62432 -0.46911,1.81126 -0.69114,2.31535 -0.30612,0.69502 -0.70339,1.37513 -1.21659,2.08275 -0.37448,0.51635 -0.43944,0.57111 -0.53742,0.45304 z"
       style="fill:#6a6a6a;fill-opacity:1;stroke:none" />
  </g>
</svg>
