<?xml version="1.0" encoding="UTF-8" standalone="no"?>
<!-- Created with Inkscape (http://www.inkscape.org/) -->

<svg
   xmlns:dc="http://purl.org/dc/elements/1.1/"
   xmlns:cc="http://creativecommons.org/ns#"
   xmlns:rdf="http://www.w3.org/1999/02/22-rdf-syntax-ns#"
   xmlns:svg="http://www.w3.org/2000/svg"
   xmlns="http://www.w3.org/2000/svg"
   xmlns:sodipodi="http://sodipodi.sourceforge.net/DTD/sodipodi-0.dtd"
   xmlns:inkscape="http://www.inkscape.org/namespaces/inkscape"
   width="4.839355mm"
   height="3.3867421mm"
   viewBox="0 0 17.147321 12.000267"
   id="svg2"
   version="1.1"
   inkscape:version="0.91 r13725"
   sodipodi:docname="instagram.svg">
  <defs
     id="defs4" />
  <sodipodi:namedview
     id="base"
     pagecolor="#ffffff"
     bordercolor="#666666"
     borderopacity="1.0"
     inkscape:pageopacity="0.0"
     inkscape:pageshadow="2"
     inkscape:zoom="5.6"
     inkscape:cx="94.737993"
     inkscape:cy="37.491409"
     inkscape:document-units="px"
     inkscape:current-layer="g4158"
     showgrid="false"
     fit-margin-top="0"
     fit-margin-left="0"
     fit-margin-right="0"
     fit-margin-bottom="0"
     inkscape:window-width="1920"
     inkscape:window-height="976"
     inkscape:window-x="-8"
     inkscape:window-y="-8"
     inkscape:window-maximized="1" />
  <metadata
     id="metadata7">
    <rdf:RDF>
      <cc:Work
         rdf:about="">
        <dc:format>image/svg+xml</dc:format>
        <dc:type
           rdf:resource="http://purl.org/dc/dcmitype/StillImage" />
        <dc:title></dc:title>
      </cc:Work>
    </rdf:RDF>
  </metadata>
  <g
     inkscape:label="Layer 1"
     inkscape:groupmode="layer"
     id="layer1"
     transform="translate(3623.6944,-1331.352)">
    <g
       id="g4158"
       transform="translate(-321.42857,6.4285714)">
      <path
         style="fill:#6a6a6a;fill-opacity:1;stroke:none;stroke-opacity:1"
         d="m -3295.7822,1336.9016 c -2.1233,-0.046 -3.7452,-0.1543 -4.453,-0.2973 -0.7785,-0.1574 -1.4154,-0.7143 -1.6541,-1.4465 -0.3269,-1.0028 -0.4733,-4.0127 -0.3084,-6.3362 0.058,-0.8129 0.161,-1.5849 0.2661,-1.9895 0.2091,-0.8051 0.8495,-1.4196 1.663,-1.5959 1.8249,-0.3957 10.3165,-0.4232 12.8184,-0.041 0.6718,0.1025 1.0583,0.2774 1.4265,0.6457 0.3767,0.3766 0.5448,0.762 0.6761,1.5494 0.3054,1.8319 0.3054,5.1803 0,7.053 -0.1281,0.7856 -0.2933,1.1815 -0.6431,1.5411 -0.348,0.3578 -0.7507,0.5638 -1.2749,0.652 -1.3022,0.219 -5.1448,0.339 -8.5166,0.2658 z m 2.6164,-4.6952 c 1.742,-1.0017 2.2049,-1.2766 2.1835,-1.2964 -0.023,-0.022 -4.3639,-2.5321 -4.4114,-2.5516 -0.01,-0.01 -0.017,1.1496 -0.017,2.5632 0,1.4136 0.01,2.567 0.017,2.5631 0.01,-0.01 1.0121,-0.5791 2.228,-1.2783 z"
         id="path4215"
         inkscape:connector-curvature="0" />
    </g>
  </g>
</svg>
